<svg xmlns="http://www.w3.org/2000/svg" version="1.1" xmlns:xlink="http://www.w3.org/1999/xlink" xmlns:svgjs="http://svgjs.dev/svgjs" width="1280" height="800" preserveAspectRatio="none" viewBox="0 0 1280 800"><g mask="url(&quot;#SvgjsMask1027&quot;)" fill="none"><rect width="1280" height="800" x="0" y="0" fill="#0e2a47"></rect><path d="M94.983,237.281C140.768,234.219,165.654,188.763,187.948,148.656C209.331,110.188,230.806,67.265,211.463,27.733C190.199,-15.725,143.357,-40.539,94.983,-41.338C45.162,-42.16,-3.519,-19.423,-28.355,23.774C-53.121,66.849,-47.194,119.695,-22.34,162.719C2.502,205.723,45.43,240.595,94.983,237.281" fill="rgba(28, 83, 142, 0.4)" class="triangle-float3"></path><path d="M-168.57 61.9 a230.47 230.47 0 1 0 460.94 0 a230.47 230.47 0 1 0 -460.94 0z" fill="rgba(28, 83, 142, 0.4)" class="triangle-float3"></path><path d="M109.49756561099659-106.2402995556561L-84.66651303899084 34.828160994537456 56.40194751120271 228.99223964452491 250.56602616119014 87.92377909433134z" fill="rgba(28, 83, 142, 0.4)" class="triangle-float3"></path><path d="M1302.1392590825303 165.70501462487192L1203.9936073588474-90.70327078242796 1049.724581034078 93.14739556612678z" fill="rgba(28, 83, 142, 0.4)" class="triangle-float1"></path><path d="M1153.622,117.06C1183.789,117.524,1214.005,103.269,1227.604,76.336C1240.229,51.332,1228.306,22.805,1213.085,-0.709C1199.463,-21.753,1178.668,-36.901,1153.622,-37.955C1126.557,-39.094,1099.184,-29.067,1084.813,-6.105C1069.605,18.193,1069.497,49.095,1083.478,74.12C1097.809,99.771,1124.242,116.608,1153.622,117.06" fill="rgba(28, 83, 142, 0.4)" class="triangle-float3"></path><path d="M1038.3709837499114-17.116510756843816L1096.4322386938318 215.75446354939538 1329.3032130000709 157.6932086054751 1271.2419580561505-75.17776570076411z" fill="rgba(28, 83, 142, 0.4)" class="triangle-float1"></path><path d="M18.610280065321376 541.711307588234L-86.59879516405721 757.4218787000341 129.1117759477429 862.6309539294127 234.32085117712148 646.9203828176126z" fill="rgba(28, 83, 142, 0.4)" class="triangle-float2"></path><path d="M-59.81101584392135 752.7887491513933L31.9612139722461 883.853076237632 182.6715896935204 680.6625679702615z" fill="rgba(28, 83, 142, 0.4)" class="triangle-float1"></path><path d="M92.02002635499699 576.8995416197159L-60.9887345990887 623.6790143753537 85.68485501141097 829.8024194286634z" fill="rgba(28, 83, 142, 0.4)" class="triangle-float3"></path><path d="M1058.92 594.41 a15.49 15.49 0 1 0 30.98 0 a15.49 15.49 0 1 0 -30.98 0z" fill="rgba(28, 83, 142, 0.4)" class="triangle-float1"></path><path d="M1016.2710186147157 677.5828224102373L1143.451642030685 881.1143654877794 1346.9831851082272 753.93374207181 1219.8025616922578 550.4021989942679z" fill="rgba(28, 83, 142, 0.4)" class="triangle-float2"></path><path d="M1127.7671782031387 595.8845630975536L1029.2613421510332 721.9662836746293 1267.6368410426992 806.6841774642494z" fill="rgba(28, 83, 142, 0.4)" class="triangle-float3"></path></g><defs><mask id="SvgjsMask1027"><rect width="1280" height="800" fill="#ffffff"></rect></mask><style>
                @keyframes float1 {
                    0%{transform: translate(0, 0)}
                    50%{transform: translate(-10px, 0)}
                    100%{transform: translate(0, 0)}
                }

                .triangle-float1 {
                    animation: float1 5s infinite;
                }

                @keyframes float2 {
                    0%{transform: translate(0, 0)}
                    50%{transform: translate(-5px, -5px)}
                    100%{transform: translate(0, 0)}
                }

                .triangle-float2 {
                    animation: float2 4s infinite;
                }

                @keyframes float3 {
                    0%{transform: translate(0, 0)}
                    50%{transform: translate(0, -10px)}
                    100%{transform: translate(0, 0)}
                }

                .triangle-float3 {
                    animation: float3 6s infinite;
                }
            </style></defs></svg>