<svg xmlns="http://www.w3.org/2000/svg" version="1.1" xmlns:xlink="http://www.w3.org/1999/xlink" xmlns:svgjs="http://svgjs.dev/svgjs" width="1280" height="800" preserveAspectRatio="none" viewBox="0 0 1280 800"><g mask="url(&quot;#SvgjsMask1034&quot;)" fill="none"><rect width="1280" height="800" x="0" y="0" fill="rgba(9, 30, 36, 0.77)"></rect><path d="M79.99999999999997-53.33333333333335L-53.333333333333314 186.6666666666667 186.6666666666667 186.66666666666666z" fill="rgba(61, 215, 144, 0.4)" class="triangle-float1"></path><path d="M35.031,105.225C60.014,105.557,81.549,90.682,95.367,69.866C111.157,46.079,125.316,15.867,110.58,-8.587C96.087,-32.638,63.055,-32.032,35.031,-30.258C10.868,-28.729,-13.371,-20.87,-25.591,0.031C-37.913,21.107,-34.781,47.147,-22.591,68.3C-10.382,89.485,10.582,104.9,35.031,105.225" fill="rgba(61, 215, 144, 0.4)" class="triangle-float3"></path><path d="M176.45941167780484 186.38516870783258L246.5987951640572 42.57812129996583-4.181467690869113 9.272569774520719z" fill="rgba(61, 215, 144, 0.4)" class="triangle-float2"></path><path d="M1328.235,398.173C1405.854,398.812,1491.19,391.829,1533.405,326.69C1578.516,257.083,1567.507,165.858,1524.926,94.676C1483.507,25.436,1408.818,-20.308,1328.235,-16.293C1253.375,-12.564,1200.74,48.08,1162.793,112.717C1124.201,178.453,1090.609,257.409,1128.832,323.36C1166.986,389.192,1252.149,397.547,1328.235,398.173" fill="rgba(61, 215, 144, 0.4)" class="triangle-float2"></path><path d="M1292.137,335.129C1357.871,335.493,1430.181,327.699,1464.923,271.895C1501.131,213.736,1485.681,139.492,1450.554,80.674C1416.421,23.519,1358.708,-17.528,1292.137,-17.43C1225.723,-17.332,1168.266,23.935,1134.529,81.142C1100.186,139.377,1086.984,212.555,1122.631,270.001C1156.837,325.125,1227.263,334.77,1292.137,335.129" fill="rgba(61, 215, 144, 0.4)" class="triangle-float1"></path><path d="M1073.827522865116-60.128732133002366L1061.2668933668094 179.54235620809536 1300.937981707907 192.10298570640188 1313.4986112062136-47.56810263469585z" fill="rgba(61, 215, 144, 0.4)" class="triangle-float3"></path><path d="M57.02009622919148 532.8437028090159L-90.7386578489665 721.9662836746293 246.1426770948048 680.6024568871738z" fill="rgba(61, 215, 144, 0.4)" class="triangle-float2"></path><path d="M195.18,1053.93C271.638,1055.31,341.916,1008.044,376.181,939.681C407.464,877.267,383.933,806.816,349.473,746.098C314.418,684.332,266.085,624.804,195.18,620.757C118.188,616.362,43.879,658.808,7.031,726.552C-28.406,791.701,-11.803,869.045,25.151,933.345C62.259,997.912,120.721,1052.586,195.18,1053.93" fill="rgba(61, 215, 144, 0.4)" class="triangle-float1"></path><path d="M-93.57205973102663 646.32303184655L-3.6664773112076574 868.847156942579 218.85764778482132 778.94157452276 128.95206536500237 556.417449426731z" fill="rgba(61, 215, 144, 0.4)" class="triangle-float3"></path><path d="M1229.4975656109964 533.7597004443439L1035.333486961009 674.8281609945375 1176.4019475112025 868.992239644525 1370.56602616119 727.9237790943314z" fill="rgba(61, 215, 144, 0.4)" class="triangle-float2"></path><path d="M1041.72 611.61 a49.89 49.89 0 1 0 99.78 0 a49.89 49.89 0 1 0 -99.78 0z" fill="rgba(61, 215, 144, 0.4)" class="triangle-float3"></path><path d="M1331.3077004016275 696.8469096444092L1071.8007493231069 607.2147718828447 1113.4763119631702 843.5686326057747z" fill="rgba(61, 215, 144, 0.4)" class="triangle-float1"></path></g><defs><mask id="SvgjsMask1034"><rect width="1280" height="800" fill="#ffffff"></rect></mask><style>
                @keyframes float1 {
                    0%{transform: translate(0, 0)}
                    50%{transform: translate(-10px, 0)}
                    100%{transform: translate(0, 0)}
                }

                .triangle-float1 {
                    animation: float1 5s infinite;
                }

                @keyframes float2 {
                    0%{transform: translate(0, 0)}
                    50%{transform: translate(-5px, -5px)}
                    100%{transform: translate(0, 0)}
                }

                .triangle-float2 {
                    animation: float2 4s infinite;
                }

                @keyframes float3 {
                    0%{transform: translate(0, 0)}
                    50%{transform: translate(0, -10px)}
                    100%{transform: translate(0, 0)}
                }

                .triangle-float3 {
                    animation: float3 6s infinite;
                }
            </style></defs></svg>